<svg width="40" height="40" viewBox="0 0 40 40" fill="#d5cfd1" xmlns="http://www.w3.org/2000/svg">
<g clip-path="url(#clip0_1727_55)">
<path d="M23.305 18.4634H26.8367C26.9186 18.4634 26.9972 18.431 27.0553 18.3732C27.1134 18.3155 27.1462 18.237 27.1467 18.1551V15.0101C27.1467 14.9279 27.114 14.849 27.0559 14.7909C26.9977 14.7328 26.9189 14.7001 26.8367 14.7001H23.305C23.2232 14.7001 23.1448 14.7326 23.087 14.7904C23.0292 14.8482 22.9967 14.9267 22.9967 15.0084V18.1551C22.9967 18.3251 23.135 18.4634 23.305 18.4634ZM18.3817 9.41344H21.9117C21.9939 9.41344 22.0727 9.38078 22.1309 9.32264C22.189 9.2645 22.2217 9.18565 22.2217 9.10344V5.95677C22.2212 5.87484 22.1884 5.79642 22.1303 5.73864C22.0722 5.68087 21.9936 5.64844 21.9117 5.64844H18.3817C18.2999 5.64844 18.2215 5.68092 18.1637 5.73875C18.1058 5.79657 18.0733 5.875 18.0733 5.95677V9.10344C18.0733 9.27344 18.21 9.41344 18.3817 9.41344ZM18.3817 13.9384H21.9117C21.9938 13.938 22.0724 13.9052 22.1304 13.8472C22.1884 13.7891 22.2212 13.7105 22.2217 13.6284V10.4834C22.2212 10.4015 22.1884 10.3231 22.1303 10.2653C22.0722 10.2075 21.9936 10.1751 21.9117 10.1751H18.3817C18.2999 10.1751 18.2215 10.2076 18.1637 10.2654C18.1058 10.3232 18.0733 10.4017 18.0733 10.4834V13.6284C18.0733 13.7984 18.21 13.9368 18.3817 13.9384ZM13.4983 13.9384H17.0317C17.1133 13.9376 17.1913 13.9045 17.2487 13.8465C17.3061 13.7884 17.3384 13.7101 17.3383 13.6284V10.4834C17.3383 10.4017 17.3059 10.3232 17.248 10.2654C17.1902 10.2076 17.1118 10.1751 17.03 10.1751H13.5C13.4182 10.1751 13.3398 10.2076 13.282 10.2654C13.2242 10.3232 13.1917 10.4017 13.1917 10.4834V13.6284C13.1917 13.7984 13.33 13.9368 13.5 13.9384M8.56001 13.9384H12.0917C12.1736 13.938 12.252 13.9051 12.3098 13.8471C12.3676 13.789 12.4 13.7104 12.4 13.6284V10.4834C12.4 10.4017 12.3675 10.3232 12.3097 10.2654C12.2519 10.2076 12.1735 10.1751 12.0917 10.1751H8.56001C8.47808 10.1751 8.39949 10.2075 8.3414 10.2653C8.28331 10.3231 8.25045 10.4015 8.25001 10.4834V13.6284C8.25001 13.7984 8.39001 13.9368 8.56001 13.9384ZM18.3817 18.4634H21.9117C21.9936 18.4634 22.0722 18.431 22.1303 18.3732C22.1884 18.3155 22.2212 18.237 22.2217 18.1551V15.0101C22.2217 14.9279 22.189 14.849 22.1309 14.7909C22.0727 14.7328 21.9939 14.7001 21.9117 14.7001H18.3817C18.2999 14.7001 18.2215 14.7326 18.1637 14.7904C18.1058 14.8482 18.0733 14.9267 18.0733 15.0084V18.1551C18.0733 18.3251 18.21 18.4634 18.3817 18.4634ZM13.4983 18.4634H17.0317C17.1132 18.463 17.1912 18.4303 17.2486 18.3725C17.3061 18.3148 17.3383 18.2366 17.3383 18.1551V15.0101C17.3386 14.9696 17.3308 14.9295 17.3155 14.892C17.3002 14.8545 17.2777 14.8204 17.2492 14.7916C17.2207 14.7628 17.1869 14.7399 17.1495 14.7242C17.1122 14.7085 17.0722 14.7003 17.0317 14.7001H13.4983C13.4169 14.7005 13.3389 14.7332 13.2814 14.791C13.2239 14.8488 13.1917 14.927 13.1917 15.0084V18.1551C13.1917 18.3251 13.33 18.4634 13.5 18.4634M8.56001 18.4634H12.0917C12.1735 18.4634 12.2519 18.431 12.3097 18.3731C12.3675 18.3153 12.4 18.2369 12.4 18.1551V15.0101C12.4002 14.9696 12.3925 14.9295 12.3772 14.892C12.3619 14.8545 12.3394 14.8204 12.3109 14.7916C12.2824 14.7628 12.2485 14.7399 12.2112 14.7242C12.1739 14.7085 12.1338 14.7003 12.0933 14.7001H8.56001C8.4778 14.7001 8.39895 14.7328 8.34081 14.7909C8.28267 14.849 8.25001 14.9279 8.25001 15.0101V18.1551C8.25001 18.3251 8.39001 18.4634 8.56001 18.4634ZM3.69335 18.4634H7.22668C7.30817 18.463 7.38616 18.4303 7.44363 18.3725C7.50109 18.3148 7.53335 18.2366 7.53335 18.1551V15.0101C7.53357 14.9696 7.52581 14.9295 7.51052 14.892C7.49522 14.8545 7.47269 14.8204 7.44422 14.7916C7.41574 14.7628 7.38187 14.7399 7.34455 14.7242C7.30722 14.7085 7.26717 14.7003 7.22668 14.7001H3.69335C3.61186 14.7005 3.53386 14.7332 3.4764 14.791C3.41893 14.8488 3.38668 14.927 3.38668 15.0084V18.1551C3.38668 18.3251 3.52168 18.4634 3.69335 18.4634ZM39.605 16.4834C39.4967 16.3984 38.485 15.6334 36.3483 15.6334C35.785 15.6351 35.2217 15.6834 34.665 15.7784C34.2517 12.9451 31.91 11.5618 31.805 11.5018L31.2317 11.1701L30.855 11.7151C30.3817 12.4451 30.0383 13.2518 29.835 14.0984C29.4517 15.7151 29.685 17.2351 30.5067 18.5334C29.515 19.0868 27.9233 19.2218 27.6 19.2334H1.25168C0.92087 19.2339 0.603687 19.3653 0.369457 19.5989C0.135227 19.8325 0.00300097 20.1493 0.00167978 20.4801C-0.0291841 22.7882 0.361671 25.0825 1.15501 27.2501C2.06335 29.6301 3.41335 31.3834 5.17168 32.4568C7.13835 33.6618 10.3383 34.3518 13.9633 34.3518C15.6017 34.3568 17.235 34.2084 18.8467 33.9084C21.0848 33.4973 23.2383 32.7148 25.2183 31.5934C26.8517 30.6484 28.3183 29.4468 29.5683 28.0334C31.655 25.6701 32.8983 23.0384 33.8233 20.7001H34.1917C36.4783 20.7001 37.8833 19.7851 38.6583 19.0184C39.1733 18.5301 39.575 17.9351 39.8367 17.2751L40 16.7951L39.605 16.4834Z" fill="#d5cfd1"/>
</g>
<defs>
<clipPath id="clip0_1727_55">
<rect width="40" height="40" fill="white"/>
</clipPath>
</defs>
</svg>
