<svg width="40" height="41" viewBox="0 0 40 41" fill="#d5cfd1" xmlns="http://www.w3.org/2000/svg">
<path d="M40 21.0335C40 25.4484 38.7283 29.4192 36.1849 32.9458C33.6415 36.4725 30.3559 38.913 26.3281 40.2674C25.8594 40.3554 25.5165 40.2938 25.2995 40.0827C25.0825 39.8717 24.974 39.6078 24.974 39.2912V33.7242C24.974 32.018 24.5226 30.7692 23.6198 29.9776C24.6094 29.8721 25.4991 29.7138 26.2891 29.5027C27.079 29.2917 27.895 28.9487 28.737 28.4738C29.579 27.9988 30.2821 27.414 30.8464 26.7192C31.4106 26.0244 31.8707 25.101 32.2266 23.9489C32.5825 22.7968 32.7604 21.4732 32.7604 19.9781C32.7604 17.8498 32.0747 16.0381 30.7031 14.543C31.3455 12.9423 31.276 11.1482 30.4948 9.16063C30.0087 9.00233 29.3056 9.09907 28.3854 9.45086C27.4653 9.80265 26.6667 10.1896 25.9896 10.6118L25 11.245C23.3854 10.7876 21.7188 10.559 20 10.559C18.2812 10.559 16.6146 10.7876 15 11.245C14.7222 11.0515 14.3533 10.814 13.8932 10.5326C13.4332 10.2512 12.7083 9.91258 11.7188 9.51682C10.7292 9.12106 9.98264 9.00233 9.47917 9.16063C8.71528 11.1482 8.65451 12.9423 9.29688 14.543C7.92535 16.0381 7.23958 17.8498 7.23958 19.9781C7.23958 21.4732 7.41753 22.7924 7.77344 23.9357C8.12934 25.079 8.58507 26.0024 9.14062 26.706C9.69618 27.4096 10.395 27.9988 11.237 28.4738C12.079 28.9487 12.895 29.2917 13.6849 29.5027C14.4748 29.7138 15.3646 29.8721 16.3542 29.9776C15.6597 30.6109 15.2344 31.5167 15.0781 32.6952C14.7135 32.8711 14.3229 33.003 13.9062 33.091C13.4896 33.1789 12.9948 33.2229 12.4219 33.2229C11.849 33.2229 11.2804 33.0338 10.7161 32.6556C10.1519 32.2775 9.67014 31.7278 9.27083 31.0066C8.94097 30.4438 8.51997 29.9864 8.00781 29.6347C7.49566 29.2829 7.06597 29.0718 6.71875 29.0014L6.19792 28.9223C5.83333 28.9223 5.5816 28.9619 5.44271 29.041C5.30382 29.1202 5.26042 29.2213 5.3125 29.3444C5.36458 29.4676 5.44271 29.5907 5.54688 29.7138C5.65104 29.8369 5.76389 29.9425 5.88542 30.0304L6.06771 30.1623C6.44965 30.3382 6.82726 30.6724 7.20052 31.1649C7.57378 31.6574 7.84722 32.106 8.02083 32.5105L8.28125 33.1173C8.50694 33.7857 8.88889 34.3266 9.42708 34.74C9.96528 35.1533 10.5469 35.4172 11.1719 35.5315C11.7969 35.6458 12.4002 35.7074 12.9818 35.7162C13.5634 35.725 14.0451 35.6942 14.4271 35.6238L15.026 35.5183C15.026 36.1867 15.0304 36.9694 15.0391 37.8665C15.0477 38.7635 15.0521 39.2384 15.0521 39.2912C15.0521 39.6078 14.9392 39.8717 14.7135 40.0827C14.4878 40.2938 14.1406 40.3554 13.6719 40.2674C9.6441 38.913 6.35851 36.4725 3.8151 32.9458C1.2717 29.4192 0 25.4484 0 21.0335C0 17.3573 0.894097 13.9669 2.68229 10.8624C4.47049 7.75788 6.8967 5.29977 9.96094 3.48806C13.0252 1.67636 16.3715 0.770508 20 0.770508C23.6285 0.770508 26.9748 1.67636 30.0391 3.48806C33.1033 5.29977 35.5295 7.75788 37.3177 10.8624C39.1059 13.9669 40 17.3573 40 21.0335Z" fill="#d5cfd1"/>
</svg>
