<svg width="40" height="36" viewBox="0 0 40 36" fill="#848a96" xmlns="http://www.w3.org/2000/svg">
<path d="M39.9253 20.5657L37.6869 13.8413L33.2508 0.513759C33.0789 -0.00254424 32.4743 -0.12929 32.088 0.131657C31.9607 0.217397 31.8576 0.396643 31.8009 0.565948L27.3645 13.9457H12.6343L9.69519 5.06418L8.19856 0.540164C8.17203 0.455213 8.13209 0.374823 8.08018 0.301894C8.05535 0.269586 8.02289 0.241628 7.99425 0.214912C7.69607 -0.061568 7.20982 -0.0572189 6.92501 0.237279C6.84515 0.315504 6.78463 0.41049 6.74807 0.515001L2.31197 13.842L1.37447 16.6589L0.0735479 20.5657C-0.00459432 20.802 -0.0207782 21.0537 0.026477 21.2977C0.0737323 21.5417 0.182918 21.7702 0.344042 21.9624C0.426781 22.0609 0.519068 22.1528 0.627265 22.2295L19.9994 35.9694L39.3713 22.2302C39.632 22.0456 39.826 21.7851 39.9255 21.486C40.025 21.187 40.0251 20.8646 39.9253 20.5657Z" fill="#585C64"/>
</svg>
