<svg width="40" height="40" viewBox="0 0 40 40" fill="#d5cfd1" xmlns="http://www.w3.org/2000/svg">
<g clip-path="url(#clip0_1726_41)">
<path d="M37.825 7.16172C36.6616 5.99862 35.0919 5.33286 33.447 5.30487C31.8021 5.27689 30.2107 5.88887 29.0083 7.01172C28.9482 7.06901 28.9003 7.13792 28.8676 7.21427C28.8348 7.29062 28.818 7.37282 28.818 7.45589C28.818 7.53896 28.8348 7.62116 28.8676 7.69751C28.9003 7.77386 28.9482 7.84277 29.0083 7.90006L29.775 8.68339C29.8783 8.78573 30.015 8.84745 30.1601 8.85724C30.3051 8.86703 30.4489 8.82425 30.565 8.73672C31.2983 8.15212 32.2291 7.8734 33.163 7.95877C34.097 8.04413 34.9618 8.48699 35.577 9.19486C36.1921 9.90272 36.51 10.8209 36.4643 11.7576C36.4186 12.6943 36.0128 13.5771 35.3317 14.2217C30.2933 19.2551 23.5717 5.14339 8.31333 12.4167C8.05557 12.5403 7.82623 12.7159 7.63982 12.9326C7.45341 13.1493 7.31397 13.4023 7.23033 13.6756C7.14668 13.949 7.12065 14.2367 7.15387 14.5206C7.18709 14.8045 7.27885 15.0784 7.42333 15.3251L10.0417 19.8467C10.313 20.3183 10.7597 20.6636 11.2844 20.8075C11.8091 20.9514 12.3694 20.8822 12.8433 20.6151L12.905 20.5817L12.8567 20.6151L14.0033 19.9751C15.2968 19.1722 16.5196 18.2605 17.6583 17.2501C17.771 17.1472 17.9168 17.088 18.0692 17.0831C18.2217 17.0782 18.3709 17.128 18.49 17.2234C18.5546 17.2773 18.607 17.3443 18.6438 17.42C18.6806 17.4957 18.701 17.5783 18.7035 17.6624C18.706 17.7465 18.6907 17.8302 18.6585 17.9079C18.6263 17.9857 18.5779 18.0557 18.5167 18.1134C17.3179 19.1924 16.0262 20.1634 14.6567 21.0151H14.6167L13.4567 21.6651C12.9665 21.9398 12.4136 22.0833 11.8517 22.0817C11.2696 22.084 10.6972 21.9328 10.1922 21.6435C9.68718 21.3541 9.26734 20.9367 8.975 20.4334L6.5 16.1601C1.76666 19.5334 -1.14334 26.0051 0.433331 34.2034C0.459222 34.3413 0.532228 34.4659 0.639855 34.5559C0.747483 34.6459 0.883041 34.6957 1.02333 34.6967H3.815C3.96863 34.7003 4.11785 34.6452 4.23238 34.5428C4.34691 34.4403 4.41816 34.2981 4.43166 34.1451C4.56048 33.1498 5.04725 32.2356 5.80101 31.5731C6.55478 30.9106 7.52397 30.5452 8.5275 30.5452C9.53102 30.5452 10.5002 30.9106 11.254 31.5731C12.0077 32.2356 12.4945 33.1498 12.6233 34.1451C12.6408 34.2906 12.711 34.4247 12.8207 34.522C12.9303 34.6194 13.0717 34.6732 13.2183 34.6734H15.9483C16.0946 34.6722 16.2355 34.6179 16.3449 34.5208C16.4543 34.4237 16.5248 34.2902 16.5433 34.1451C16.6736 33.1511 17.1608 32.2385 17.9143 31.5773C18.6677 30.9162 19.6359 30.5516 20.6383 30.5516C21.6407 30.5516 22.6089 30.9162 23.3624 31.5773C24.1158 32.2385 24.6031 33.1511 24.7333 34.1451C24.7519 34.2905 24.8226 34.4242 24.9324 34.5214C25.0421 34.6185 25.1834 34.6726 25.33 34.6734H28.0417C28.2004 34.6734 28.3528 34.611 28.466 34.4997C28.5791 34.3884 28.644 34.2371 28.6467 34.0784C28.7083 30.2551 29.74 25.8617 32.68 23.6617C42.86 16.0451 40.1817 9.51839 37.825 7.16172ZM27.4433 18.6634L25.5017 17.6901C25.5019 17.4825 25.5552 17.2784 25.6566 17.0972C25.758 16.916 25.904 16.7638 26.0808 16.6551C26.2576 16.5463 26.4594 16.4846 26.6668 16.4758C26.8742 16.467 27.0804 16.5114 27.2658 16.6048C27.4512 16.6982 27.6096 16.8375 27.726 17.0094C27.8423 17.1814 27.9127 17.3802 27.9305 17.587C27.9483 17.7939 27.9129 18.0018 27.8276 18.1911C27.7423 18.3804 27.61 18.5447 27.4433 18.6684V18.6634Z" fill="#d5cfd1"/>
</g>
<defs>
<clipPath id="clip0_1726_41">
<rect width="40" height="40" fill="white"/>
</clipPath>
</defs>
</svg>
