<svg width="40" height="40" viewBox="0 0 40 40" fill="#848a96" xmlns="http://www.w3.org/2000/svg">
<g clip-path="url(#clip0_1727_44)">
<path d="M12.6689 30.935C12.6689 30.935 10.6289 31.825 14.12 32.125C15.3978 32.2667 16.8733 32.3483 18.3711 32.3483C20.78 32.3483 23.1222 32.14 25.3689 31.7433L25.1622 31.7733C25.9933 32.1533 26.96 32.515 27.9667 32.8133L28.0978 32.8467C17.6578 36.2033 4.46887 32.6517 12.6711 30.9333L12.6689 30.935ZM11.3933 26.555C11.3933 26.555 9.10665 27.825 12.5978 28.095C14.1244 28.2383 15.8911 28.3217 17.6844 28.3217C20.9311 28.3217 24.0933 28.0517 27.1333 27.5417L26.8467 27.5817C27.4578 28.0117 28.1889 28.3533 28.9978 28.575L29.0422 28.585C16.42 31.3533 2.35776 28.8033 11.3933 26.555ZM22.1467 19.125C24.72 21.3467 21.4711 23.345 21.4711 23.345C21.4711 23.345 28.0022 20.8117 25.0044 17.6483C22.2022 14.695 20.0533 13.2267 31.6844 8.16833C31.6844 8.16833 13.4267 11.5883 22.1467 19.125Z" fill="#585C64"/>
<path d="M35.9555 34.175C35.9555 34.175 37.4622 35.1083 34.2955 35.8283C28.2689 37.1983 9.21332 37.6116 3.91777 35.8833C2.01554 35.2616 5.58443 34.4 6.70443 34.22C7.21999 34.1216 7.81332 34.065 8.42443 34.065H8.5511H8.54443C6.42888 32.9466 -5.13334 36.2616 2.67777 37.2083C23.9644 39.7983 41.4822 36.0416 35.9622 34.175H35.9555ZM13.6489 22.0166C13.6489 22.0166 3.95554 23.7433 10.2155 24.37C11.9022 24.475 13.8689 24.5333 15.8511 24.5333C18.3822 24.5333 20.8822 24.4366 23.3444 24.2483L23.0355 24.2683C27.0467 24.015 31.0755 23.4683 31.0755 23.4683C30.1311 23.7783 29.3311 24.105 28.5733 24.4766L28.6378 24.4466C18.7933 26.3883 -0.22001 25.485 5.25332 23.4983C7.66666 22.56 10.5244 22.01 13.5511 22.01H13.6533H13.6489V22.0166ZM31.0355 29.3083C41.04 25.4083 36.4155 21.6616 33.1844 22.165C32.7422 22.2266 32.3578 22.3066 31.9867 22.4083L32.0378 22.3966C32.2489 22.1733 32.54 22.0016 32.88 21.905L32.8933 21.9016C39.28 20.2183 44.1955 26.87 30.8311 29.5016C30.9133 29.4466 30.98 29.3816 31.0289 29.31L31.0311 29.3066L31.0355 29.3083ZM25.0044 -4.23177e-05C25.0044 -4.23177e-05 30.5467 4.15662 19.7467 10.55C11.0889 15.6783 17.7711 18.6016 19.7467 21.9433C14.6933 18.5233 10.9844 15.5133 13.4711 12.71C17.1244 8.59662 27.2422 6.60329 25.0044 -0.00170898V-4.23177e-05Z" fill="#585C64"/>
<path d="M14.6333 39.875C24.2333 40.3367 38.9889 39.6183 39.3445 36.2117C39.3445 36.2117 38.6733 37.5033 31.4067 38.53C27.3933 39.0733 22.7733 39.3833 18.0556 39.3833C14.1911 39.3833 10.3933 39.175 6.67557 38.7733L7.10001 38.8117C7.10001 38.8117 8.3289 39.575 14.64 39.8783L14.6333 39.875Z" fill="#585C64"/>
</g>
<defs>
<clipPath id="clip0_1727_44">
<rect width="40" height="40" fill="white"/>
</clipPath>
</defs>
</svg>
