<svg width="40" height="40" viewBox="0 0 40 40" fill="#a5acbc" xmlns="http://www.w3.org/2000/svg">
<g clip-path="url(#clip0_1727_64)">
<path d="M19.81 16.2817C22.555 16.2817 24.7267 17.0083 26.33 18.46C27.9317 19.9133 28.7333 21.8933 28.7333 24.4033C28.7333 27.31 27.82 29.5817 25.995 31.22C24.1817 32.8483 21.5983 33.6617 18.245 33.6617C15.2017 33.6617 12.8117 33.1717 11.0733 32.19V28.2233C12.1601 28.8254 13.3267 29.2703 14.5383 29.545C15.8417 29.855 17.0533 30.0117 18.1717 30.0117C20.145 30.0117 21.6483 29.57 22.6783 28.6883C23.71 27.805 24.225 26.515 24.225 24.8133C24.225 21.56 22.15 19.9317 18.0033 19.9317C17.42 19.9317 16.6983 19.995 15.8417 20.1183C14.985 20.23 14.2333 20.36 13.5883 20.51L11.6317 19.355L12.675 6.055H26.8333V9.94667H16.5317L15.915 16.69C16.3517 16.6167 16.8783 16.53 17.4983 16.43C18.1317 16.33 18.9033 16.28 19.81 16.28V16.2817ZM20 0C8.955 0 0 8.955 0 20C0.000667515 23.7186 1.03822 27.3634 2.99609 30.5248C4.95396 33.6862 7.75458 36.2391 11.0833 37.8967V31.7717H11.3133C11.33 31.7783 19.4133 35.8817 24.6817 31.7717C29.9533 27.6583 27.3817 22.13 26.4817 20.8433C25.5817 19.5583 20.9533 17.3717 16.9683 17.7583C12.9833 18.1433 12.9833 18.2717 12.9833 18.2717L14.0117 6.445L26.8233 6.32167V1.24C24.6379 0.432284 22.3282 0.0126398 19.9983 0L20 0ZM26.8233 1.24V6.32167L14.0117 6.445L12.9833 18.2717C12.9833 18.2717 12.9833 18.1433 16.9683 17.7583C20.955 17.3717 25.5833 19.5583 26.4817 20.8433C27.3817 22.13 29.9533 27.6583 24.6817 31.7717C19.415 35.8833 11.325 31.7783 11.3133 31.7717H11.0833V37.8967C13.8533 39.2785 16.9045 39.9985 20 40C31.0467 40 40 31.045 40 20C39.9938 15.9745 38.7737 12.0445 36.4991 8.72331C34.2244 5.40209 31.0011 2.84405 27.25 1.38333C27.1083 1.33333 26.965 1.285 26.8233 1.24Z" fill="#d5cfd1"/>
</g>
<defs>
<clipPath id="clip0_1727_64">
<rect width="40" height="40" fill="white"/>
</clipPath>
</defs>
</svg>
