<svg width="40" height="41" viewBox="0 0 40 41" fill="#848a96" xmlns="http://www.w3.org/2000/svg">
<path d="M34.0783 34.4615H28.155V25.2876C28.155 23.0999 28.11 20.2847 25.0683 20.2847C21.98 20.2847 21.5083 22.6651 21.5083 25.1262V34.4615H15.585V15.5964H21.275V18.1679H21.3517C22.1467 16.6853 24.08 15.1203 26.9683 15.1203C32.97 15.1203 34.08 19.0245 34.08 24.1065L34.0783 34.4615ZM8.895 13.015C6.98833 13.015 5.45667 11.4896 5.45667 9.61333C5.45667 7.73868 6.99 6.2149 8.895 6.2149C10.795 6.2149 12.335 7.73868 12.335 9.61333C12.335 11.4896 10.7933 13.015 8.895 13.015ZM11.865 34.4615H5.925V15.5964H11.865V34.4615ZM37.0417 0.770508H2.95167C1.32 0.770508 0 2.04553 0 3.61873V37.458C0 39.0328 1.32 40.3062 2.95167 40.3062H37.0367C38.6667 40.3062 40 39.0328 40 37.458V3.61873C40 2.04553 38.6667 0.770508 37.0367 0.770508L37.0417 0.770508Z" fill="#585C64"/>
</svg>
