<svg width="40" height="40" viewBox="0 0 40 40" fill="none" xmlns="http://www.w3.org/2000/svg">
<g clip-path="url(#clip0_1727_49)">
<path d="M7.06166 0.00182212C6.54166 -0.0198445 5.95333 0.121822 5.68166 0.763489C5.41833 1.38682 5.20999 2.74349 5.11499 4.55682L7.15333 5.54182C7.11999 4.31349 7.16499 3.15849 7.27999 2.09849C7.23666 2.59682 7.18666 3.69849 7.28999 5.49682C7.32166 6.06682 7.37166 6.70516 7.43666 7.41349C7.43999 7.45349 7.43999 7.49182 7.44833 7.52849C7.58414 8.87284 7.75586 10.2133 7.96333 11.5485C8.05833 12.1618 8.17333 12.8018 8.28833 13.4818L8.27166 13.4985C8.29499 13.5152 8.29666 13.5285 8.29499 13.5368L8.34499 13.8035C8.39499 14.0735 8.44499 14.3502 8.49999 14.6268L8.67999 15.5485L8.77333 16.0302C9.00748 17.1833 9.26141 18.3324 9.53499 19.4768C9.68499 20.1135 9.84499 20.7768 10.0133 21.4535C10.1767 22.0968 10.345 22.7585 10.5283 23.4418C10.6883 24.0452 10.86 24.6668 11.0333 25.3035C11.0383 25.3335 11.0533 25.3635 11.0583 25.3952C11.2444 26.0543 11.4333 26.7126 11.625 27.3702L11.7067 27.6602C11.8367 28.0952 11.97 28.5485 12.11 29.0018C11.9444 28.9331 11.7815 28.858 11.6217 28.7768L11.305 27.6868C11.2717 27.5585 11.235 27.4402 11.2017 27.3118L11.1983 27.3052L11.1917 27.3018C11.0467 26.8018 10.9083 26.2902 10.7633 25.7752C10.725 25.6302 10.69 25.4868 10.6483 25.3368L10.125 23.3735C9.95833 22.7385 9.80166 22.0985 9.64166 21.4502C9.48499 20.8002 9.33333 20.1502 9.17999 19.4968C9.02499 18.8285 8.87833 18.1635 8.73833 17.4918C8.59666 16.8318 8.46999 16.1618 8.33833 15.5035C8.21343 14.8549 8.0962 14.2048 7.98666 13.5535C7.97999 13.5318 7.97666 13.5035 7.96999 13.4852L7.97666 13.4818C7.88166 12.8385 7.78333 12.1985 7.68666 11.5652C7.59444 10.8971 7.50888 10.2282 7.42999 9.55849C7.27553 8.22446 7.17988 6.88427 7.14333 5.54182L5.10999 4.55849C5.10333 4.68182 5.09333 4.80849 5.08833 4.94182C5.06833 5.43182 5.05499 5.95016 5.04999 6.49182C5.04512 7.13462 5.04845 7.77745 5.05999 8.42016C5.07499 9.03682 5.10166 9.67849 5.13499 10.3335C5.16833 10.8935 5.20499 11.4585 5.25166 12.0368L5.25499 12.1018L5.26499 12.1085C5.26999 12.1468 5.27666 12.1918 5.27499 12.2352C5.32999 12.8485 5.38166 13.4668 5.45333 14.0935C5.58488 15.279 5.75329 16.4601 5.95833 17.6352C5.97499 17.7418 5.99833 17.8535 6.01666 17.9602C6.25471 19.2637 6.559 20.5542 6.92833 21.8268C7.04499 22.2218 7.16166 22.6002 7.27833 22.9602C7.38333 23.2635 7.49499 23.5685 7.60166 23.8685C7.85999 24.5718 8.14666 25.2552 8.45499 25.9218L8.46499 25.9285C8.47373 25.9572 8.48488 25.985 8.49833 26.0118C8.87333 26.8202 9.28999 27.5952 9.75666 28.3368C9.77333 28.3585 9.78999 28.3918 9.80666 28.4152C9.04833 28.1102 7.70833 28.2518 7.71833 28.2535C9.10166 28.7335 10.3133 29.3202 11.0783 30.2118C10.7733 30.5452 10.2067 30.7985 9.48999 31.0068C10.48 31.1135 11.03 30.9418 11.2317 30.8535C10.715 31.2868 10.4267 32.0735 10.1733 32.9202C10.7567 31.9702 11.3333 31.3385 11.895 31.0968C12.025 31.5268 12.165 31.9702 12.3017 32.4102C11.0227 34.9187 9.787 37.4491 8.59499 40.0002C8.74816 39.9796 8.89383 39.9213 9.01892 39.8306C9.144 39.7398 9.24459 39.6194 9.31166 39.4802C9.52833 39.0102 10.695 36.5218 12.4917 33.0218C13.18 35.1935 13.9583 37.4868 14.8017 39.8702C14.8856 39.7617 14.9412 39.6341 14.9633 39.4987C14.9855 39.3634 14.9734 39.2247 14.9283 39.0952C14.1578 36.9183 13.431 34.7262 12.7483 32.5202C13.005 32.0218 13.275 31.5002 13.555 30.9668C13.7633 31.0335 13.98 31.1235 14.2033 31.2252C14.5417 31.5352 14.79 32.0435 15.0067 32.6252C15.0683 31.9658 14.8684 31.3085 14.45 30.7952C16.675 31.2252 18.695 30.9452 19.9283 29.4452C20.0408 29.3062 20.1475 29.1628 20.2483 29.0152C19.7067 29.5218 19.1117 29.6885 18.06 29.4702C19.72 29.0018 20.5983 28.4418 21.4517 27.4368C21.6517 27.1952 21.8583 26.9318 22.07 26.6368C20.4983 27.8402 18.8583 28.0068 17.2367 27.4585L17.1617 27.4285C18.685 27.4618 20.8333 26.6385 22.315 25.4468C22.9983 24.8968 23.6417 24.2302 24.265 23.4302C24.7317 22.8318 25.1817 22.1635 25.6317 21.4035C26.0217 20.7485 26.4117 20.0302 26.7983 19.2485C26.3992 19.3792 25.9844 19.456 25.565 19.4768L25.325 19.4902C25.245 19.4935 25.17 19.4902 25.0817 19.4935C26.5567 19.1635 27.5817 18.2602 28.405 17.0818C28.005 17.2768 27.3583 17.5185 26.6217 17.5768C26.525 17.5868 26.4217 17.5868 26.3183 17.5868C26.2967 17.5835 26.2717 17.5868 26.24 17.5835C26.75 17.4535 27.1967 17.2868 27.59 17.0685C27.797 16.9502 27.9963 16.8188 28.1867 16.6752C28.26 16.6135 28.3333 16.5585 28.4033 16.4985C28.5683 16.3552 28.725 16.1985 28.87 16.0202C28.9167 15.9635 28.9633 15.9152 29.0033 15.8568C29.0633 15.7735 29.125 15.6935 29.1767 15.6135C29.4864 15.1703 29.7703 14.7095 30.0267 14.2335C30.0517 14.1818 30.08 14.1385 30.1033 14.0868C30.17 13.9468 30.2367 13.8202 30.2867 13.7085C30.3567 13.5435 30.41 13.4102 30.44 13.3118C30.3835 13.347 30.3231 13.3756 30.26 13.3968C29.805 13.5835 29.0483 13.7085 28.45 13.7318C28.4433 13.7318 28.4367 13.7318 28.4283 13.7385H28.3167C29.5167 13.3818 30.095 12.9885 30.6867 12.3752C31.3796 11.6251 32.0221 10.8301 32.61 9.99516C33.05 9.37849 33.4517 8.76516 33.7633 8.20849C33.9456 7.88826 34.1113 7.55894 34.26 7.22182C34.37 6.96016 34.4633 6.71349 34.5467 6.47182C33.77 6.48849 32.9033 6.49016 32.08 6.47182C32.905 6.48849 33.7717 6.48349 34.5533 6.46349C35.3867 3.98849 34.6583 2.69349 34.6583 2.69349C34.6583 2.69349 33.7817 0.673489 32.325 1.27516C31.615 1.56682 30.3717 2.49182 28.8533 3.87516L29.71 6.29182C30.5957 5.33976 31.544 4.44778 32.5483 3.62182C32.12 3.98849 31.2033 4.83182 29.8567 6.36182C29.43 6.84516 28.9617 7.40182 28.45 8.02349C28.4217 8.05682 28.3917 8.08682 28.3717 8.12349C27.4138 9.31353 26.4879 10.529 25.595 11.7685C25.1817 12.3352 24.765 12.9418 24.32 13.5818H24.2933C24.2967 13.6152 24.2867 13.6285 24.2767 13.6352L24.1083 13.8885C23.935 14.1468 23.7533 14.4052 23.5783 14.6718L22.9917 15.5618C22.89 15.7118 22.785 15.8635 22.6817 16.0235C22.375 16.4935 22.07 16.9785 21.7517 17.4785C20.9401 18.7661 20.1467 20.0652 19.3717 21.3752C18.6086 22.6664 17.8635 23.9682 17.1367 25.2802C17.1167 25.3085 17.1033 25.3468 17.08 25.3752C16.7065 26.0533 16.3354 26.7327 15.9667 27.4135L15.805 27.7152C15.5217 28.2452 15.2283 28.7852 14.9383 29.3468C14.9383 29.3535 14.93 29.3602 14.9283 29.3685C14.885 29.4485 14.845 29.5235 14.8083 29.6035C14.6133 29.9735 14.445 30.3102 14.0583 31.0535C13.9404 30.9385 13.8101 30.8368 13.67 30.7502L14.245 29.6668C14.3233 29.5185 14.405 29.3718 14.4833 29.2168L14.55 29.0885L15.46 27.4202L15.6767 27.0318V27.0218L15.675 27.0118C15.9567 26.4952 16.25 25.9785 16.5417 25.4452C16.6267 25.3002 16.7117 25.1568 16.7967 25.0035C17.17 24.3452 17.5533 23.6802 17.9367 23.0085C19.0791 21.0355 20.2655 19.0884 21.495 17.1685C21.9067 16.5252 22.3333 15.8852 22.7517 15.2485C22.905 15.0185 23.055 14.7952 23.2167 14.5652C23.4811 14.1742 23.7477 13.7847 24.0167 13.3968C24.0283 13.3768 24.0483 13.3568 24.06 13.3352H24.07C24.5033 12.7418 24.9317 12.1468 25.3583 11.5602C25.8217 10.9385 26.2817 10.3352 26.7417 9.74349C27.6777 8.54785 28.6659 7.39396 29.7033 6.28516L28.845 3.87516C28.745 3.97016 28.635 4.06849 28.525 4.17182C28.0973 4.56995 27.6762 4.97501 27.2617 5.38682C26.77 5.87682 26.2667 6.39682 25.7417 6.94516C24.8079 7.94187 23.9009 8.96335 23.0217 10.0085L22.9717 10.0635L22.975 10.0768C22.9467 10.1102 22.92 10.1502 22.885 10.1835C22.4417 10.7218 21.9883 11.2652 21.55 11.8252C20.7138 12.8833 19.9106 13.9672 19.1417 15.0752C19.07 15.1752 19 15.2852 18.93 15.3852C18.0858 16.624 17.3054 17.9051 16.5917 19.2235C16.375 19.6352 16.165 20.0318 15.975 20.4152C15.815 20.7402 15.6633 21.0735 15.5117 21.4002C15.1617 22.1718 14.8483 22.9502 14.5683 23.7318L14.5717 23.7418C14.5544 23.7727 14.5399 23.8051 14.5283 23.8385C14.3483 24.3435 14.19 24.8518 14.045 25.3618C13.8117 25.6518 13.5417 25.9035 13.24 26.1285C13.1697 26.0414 13.0969 25.9564 13.0217 25.8735C13.7586 24.768 14.2287 23.5066 14.395 22.1885C14.4826 21.3636 14.4736 20.5313 14.3683 19.7085C14.2917 19.0418 14.1583 18.3418 13.9717 17.5852C13.81 16.9302 13.61 16.2352 13.3667 15.5052C13.215 15.8135 13 16.1168 12.735 16.4135L12.5917 16.5702C12.5433 16.6235 12.4917 16.6702 12.4383 16.7268C13.1617 15.6035 13.2483 14.3985 13.035 13.1468C12.8508 13.6646 12.5741 14.1446 12.2183 14.5635C12.1633 14.6268 12.0983 14.6918 12.035 14.7568C12.0183 14.7685 12.0033 14.7868 11.98 14.8035C12.22 14.4035 12.3967 14.0252 12.51 13.6402C12.537 13.5604 12.5592 13.4792 12.5767 13.3968C12.6028 13.2727 12.6239 13.1476 12.64 13.0218L12.67 12.7785C12.6854 12.5821 12.6843 12.3847 12.6667 12.1885C12.6617 12.1218 12.66 12.0618 12.65 12.0002C12.6333 11.9085 12.6233 11.8252 12.605 11.7435C12.525 11.271 12.4176 10.8035 12.2833 10.3435C12.2667 10.2968 12.2583 10.2502 12.24 10.2035C12.195 10.0718 12.16 9.95516 12.12 9.85516C12.0763 9.73642 12.0263 9.62014 11.97 9.50682C11.9571 9.56446 11.9375 9.62039 11.9117 9.67349C11.7417 10.0735 11.345 10.6235 10.9833 11.0068C10.9783 11.0118 10.9717 11.0152 10.9717 11.0235L10.905 11.0952C11.435 10.1285 11.555 9.51849 11.5467 8.76516C11.5172 7.86303 11.4282 6.96385 11.28 6.07349C11.1836 5.45377 11.0545 4.83958 10.8933 4.23349C10.8089 3.91867 10.7088 3.60828 10.5933 3.30349C10.5051 3.08311 10.4095 2.86576 10.3067 2.65182C10.3078 2.6496 10.3089 2.64738 10.31 2.64516C9.29333 0.568489 8.03333 0.206822 8.03333 0.206822C8.03333 0.206822 7.58166 0.0234888 7.06166 0.00182212ZM12.695 26.3068L12.7483 26.4435V26.4468C12.6483 26.5018 12.555 26.5585 12.4517 26.6085C12.4317 26.6152 12.4117 26.6285 12.3867 26.6385C12.4962 26.5333 12.5997 26.422 12.6967 26.3052L12.695 26.3068ZM11.69 29.0168C11.9067 29.2435 12.1067 29.4202 12.28 29.5502L12.3967 29.9285C12.2582 29.9487 12.1212 29.9782 11.9867 30.0168L11.9367 29.8535C11.8967 29.7135 11.8567 29.5702 11.81 29.4252L11.775 29.3035L11.69 29.0168ZM12.1233 30.4752C12.2741 30.472 12.4249 30.4775 12.575 30.4918L12.6917 30.8735C12.8277 30.8494 12.9666 30.8471 13.1033 30.8668L12.56 31.9118C12.4127 31.4334 12.2672 30.9546 12.1233 30.4752Z" fill="#585C64"/>
</g>
<defs>
<clipPath id="clip0_1727_49">
<rect width="40" height="40" fill="white"/>
</clipPath>
</defs>
</svg>
