<svg width="40" height="40" viewBox="0 0 40 40" fill="#848a96" xmlns="http://www.w3.org/2000/svg">
<path d="M34.3167 3.44333L19.9883 0L5.68333 3.44333V14.4633H13.2783C13.2116 14.9912 13.2116 15.5254 13.2783 16.0533H5.68333V21.23C5.68333 33.1117 19.99 40 19.99 40C19.99 40 34.2933 33.1117 34.2933 21.2367V16.0583H26.7183C26.7886 15.5307 26.7886 14.996 26.7183 14.4683H34.315L34.3167 3.44333ZM20 20.4367H19.99C18.6162 20.4353 17.2991 19.8885 16.3284 18.9163C15.3576 17.9442 14.8127 16.6263 14.8133 15.2525C14.814 13.8787 15.3602 12.5613 16.3319 11.5901C17.3036 10.6189 18.6212 10.0733 19.995 10.0733C21.3688 10.0733 22.6864 10.6189 23.6581 11.5901C24.6298 12.5613 25.176 13.8787 25.1767 15.2525C25.1773 16.6263 24.6324 17.9442 23.6616 18.9163C22.6909 19.8885 21.3738 20.4353 20 20.4367ZM19.99 12.805C19.6885 12.8034 19.3953 12.9035 19.1577 13.0891C18.9202 13.2748 18.7522 13.5351 18.6809 13.8281C18.6096 14.121 18.6391 14.4294 18.7648 14.7035C18.8904 14.9775 19.1048 15.2012 19.3733 15.3383V15.685L19.77 16.08V16.345L20.035 16.61V16.875L19.8017 17.1083L20.0517 17.5183V17.7833L19.785 18.0983L20.1567 18.4683L20.5667 18.0583V15.3633C20.8462 15.2354 21.0733 15.0152 21.2098 14.7397C21.3463 14.4642 21.3839 14.1501 21.3163 13.8502C21.2486 13.5503 21.08 13.2827 20.8385 13.0924C20.597 12.9021 20.2974 12.8006 19.99 12.805ZM19.99 14.1983C19.8914 14.1987 19.7949 14.1697 19.7127 14.1152C19.6305 14.0606 19.5664 13.9829 19.5284 13.8919C19.4904 13.8008 19.4803 13.7006 19.4994 13.6038C19.5184 13.507 19.5657 13.4181 19.6354 13.3482C19.705 13.2784 19.7938 13.2307 19.8905 13.2114C19.9872 13.192 20.0875 13.2018 20.1787 13.2394C20.2698 13.2771 20.3477 13.341 20.4026 13.423C20.4574 13.505 20.4867 13.6014 20.4867 13.7C20.4869 13.7654 20.4742 13.8303 20.4494 13.8908C20.4245 13.9514 20.388 14.0064 20.3419 14.0529C20.2958 14.0993 20.241 14.1362 20.1806 14.1614C20.1202 14.1867 20.0554 14.1998 19.99 14.2V14.1983Z" fill="#585C64"/>
</svg>
