<svg width="40" height="40" viewBox="0 0 40 40" fill="#848a96" xmlns="http://www.w3.org/2000/svg">
<g clip-path="url(#clip0_1726_23)">
<path d="M2.87834 0C1.30334 0 0.0333405 1.26833 0.0333405 2.845V37.155C0.0333405 38.7333 1.30334 40 2.87834 40H37.1217C38.6967 40 39.9667 38.7317 39.9667 37.155V2.845C39.9667 1.26667 38.6967 0 37.1217 0H2.87834ZM34.0683 5.455C30.9667 11.6117 28.5683 18.1667 24.6117 23.865C22.8383 26.4883 20.73 29.1367 17.6783 30.2983C15.495 31.2183 12.785 30.86 11.045 29.22C9.99834 28.3483 10.145 26.8367 10.7567 25.7617C12.3567 23.7217 14.6567 22.395 16.74 20.9033C23.1433 16.5283 29.15 11.4817 34.0683 5.455ZM31.2467 7.53833C27.075 12.1233 22.2783 16.1383 17.16 19.6533L17.155 19.6567L17.15 19.6617C14.9383 21.2933 12.425 22.7017 10.495 24.8517C9.91334 25.4067 9.52334 26.5883 9.60001 27.32C8.56334 25.5817 8.26667 22.9633 9.17167 21.0867C10.0483 19.1033 12.075 18.075 13.965 17.2667C20.2267 15.0117 25.1233 12.39 31.2467 7.54V7.53833Z" fill="#848a96"/>
</g>
<defs>
<clipPath id="clip0_1726_23">
<rect width="40" height="40" fill="white"/>
</clipPath>
</defs>
</svg>
