<svg width="40" height="40" viewBox="0 0 40 40" fill="none" xmlns="http://www.w3.org/2000/svg">
<g clip-path="url(#clip0_1727_58)">
<path d="M39.2433 18.2168L21.7783 0.753506C20.7717 -0.251494 19.1417 -0.251494 18.1317 0.753506L14.5133 4.37851L19.1133 8.97851C20.1883 8.62017 21.4117 8.86184 22.2617 9.71351C23.1217 10.5718 23.3583 11.8102 22.9917 12.8802L27.4217 17.3135C28.4967 16.9418 29.7333 17.1835 30.5883 18.0385C31.79 19.2385 31.79 21.1785 30.5883 22.3785C29.39 23.5768 27.4533 23.5768 26.255 22.3785C25.3567 21.4768 25.1317 20.1502 25.5817 19.0518L21.4333 14.9252V25.8002C21.7267 25.9435 22.0033 26.1385 22.2467 26.3802C23.435 27.5818 23.435 29.5185 22.2467 30.7135C21.0483 31.9152 19.0983 31.9152 17.8983 30.7135C16.7 29.5152 16.7 27.5818 17.8983 26.3835C18.2017 26.0835 18.5433 25.8568 18.9067 25.7068V14.7252C18.545 14.5735 18.2 14.3552 17.9067 14.0568C16.9983 13.1485 16.78 11.8202 17.2467 10.7085L12.7267 6.16684L0.75 18.1352C-0.25 19.1435 -0.25 20.7752 0.75 21.7835L18.2167 39.2452C19.2233 40.2518 20.8533 40.2518 21.86 39.2452L39.2433 21.8618C40.2517 20.8568 40.2517 19.2252 39.2433 18.2168Z" fill="#585C64"/>
</g>
<defs>
<clipPath id="clip0_1727_58">
<rect width="40" height="40" fill="white"/>
</clipPath>
</defs>
</svg>
