<svg width="40" height="40" viewBox="0 0 40 40" fill="none" xmlns="http://www.w3.org/2000/svg">
<path d="M36.8362 30.9574C34.6539 30.8968 32.9874 31.1039 31.5626 31.7161C31.1578 31.8901 30.5117 31.895 30.4456 32.4119C30.6682 32.6495 30.7028 33.0047 30.8796 33.297C31.2198 33.8577 31.7941 34.6103 32.3067 35.0044C32.8669 35.4354 33.4441 35.896 34.0444 36.269C35.1121 36.9324 36.3042 37.3116 37.3322 37.9763C37.9383 38.3685 38.5402 38.8621 39.1313 39.3042C39.4238 39.5229 39.62 39.8629 40 40V39.9371C39.8003 39.6778 39.7488 39.322 39.5656 39.0514L38.759 38.2291C37.9704 37.1622 36.9691 36.2249 35.9048 35.4468C35.0562 34.8258 33.1569 33.987 32.803 32.9807L32.741 32.9175C33.3426 32.8482 34.0469 32.6265 34.6024 32.4745C35.5354 32.2197 36.3691 32.2855 37.3322 32.0321L38.6349 31.6526V31.3998C38.1481 30.8906 37.8009 30.2165 37.2702 29.7556C35.8807 28.55 34.3646 27.3453 32.8033 26.3406C31.9372 25.7838 30.8672 25.4218 29.9492 24.9496C29.6405 24.7905 29.098 24.7078 28.8942 24.4434C28.4118 23.8172 28.1495 23.0232 27.7778 22.2936C26.9991 20.7649 26.2344 19.0954 25.5444 17.487C25.0738 16.3902 24.7663 15.309 24.1793 14.3251C21.3621 9.60395 18.3299 6.75482 13.6325 3.95398C12.6328 3.35829 11.4293 3.12332 10.1574 2.81543C9.47533 2.77362 8.79265 2.73116 8.11028 2.68871C7.69342 2.51175 7.26034 1.99222 6.86956 1.74008C5.3134 0.737969 1.32158 -1.44158 0.169252 1.42408C-0.558586 3.23286 1.25703 4.99725 1.90601 5.91412C2.36199 6.55647 2.94546 7.27759 3.27107 8.00065C3.48538 8.4761 3.52227 8.95284 3.70574 9.45552C4.1563 10.6942 4.549 12.0418 5.13247 13.1862C5.42723 13.7657 5.7522 14.3756 6.12518 14.8935C6.35349 15.2115 6.74555 15.3515 6.80723 15.8422C6.42439 16.3886 6.40245 17.2371 6.18719 17.9293C5.21737 21.0455 5.58336 24.9191 6.99388 27.2254C7.42632 27.9339 8.44606 29.4523 9.84768 28.8696C11.0738 28.3607 10.8 26.783 11.1507 25.3913C11.2299 25.076 11.1813 24.8439 11.3367 24.6326V24.6958L12.4538 26.9723C13.2805 28.3293 14.747 29.7472 15.9903 30.7039C16.6348 31.2001 17.1423 32.0577 17.9757 32.3481V32.2846H17.9137C17.7521 32.0282 17.4994 31.9219 17.2933 31.7158C16.8078 31.2306 16.2679 30.6275 15.8666 30.0716C14.7359 28.5072 13.7368 26.795 12.8264 25.0128C12.3915 24.1614 12.0134 23.2228 11.6471 22.3565C11.5059 22.0227 11.5078 21.5174 11.2134 21.3447C10.8118 21.9793 10.2207 22.4926 9.91032 23.2419C9.41397 24.4398 9.35005 25.9008 9.16595 27.4157C9.0572 27.4552 9.10553 27.428 9.04162 27.4785C8.17737 27.2662 7.87403 26.3597 7.55256 25.5816C6.74046 23.6143 6.58942 20.4473 7.30422 18.1828C7.48928 17.5965 8.32491 15.7517 7.98659 15.2102C7.82506 14.6702 7.29214 14.3578 6.9942 13.9452C6.62503 13.4351 6.25682 12.7636 6.00086 12.1744C5.33629 10.6411 5.02595 8.91914 4.3261 7.36866C3.99127 6.62745 3.4256 5.87717 2.96104 5.2186C2.44688 4.48841 1.87072 3.95074 1.47198 3.06822C1.33017 2.7545 1.13779 2.25215 1.34766 1.92967C1.41443 1.7122 1.50919 1.62146 1.72 1.55048C2.07994 1.26754 3.08219 1.64447 3.45676 1.80295C4.4517 2.22428 5.28224 2.62551 6.12518 3.19462C6.52933 3.46816 6.93887 3.99676 7.42791 4.14325H7.98627C8.85974 4.34776 9.83814 4.20645 10.6544 4.45925C12.0967 4.90585 13.3893 5.60104 14.5629 6.35651C18.1388 8.65824 21.0629 11.9342 23.0629 15.8425C23.3847 16.4719 23.524 17.0721 23.8073 17.7398C24.379 19.0857 25.0992 20.4706 25.6681 21.7871C26.2359 23.1003 26.7892 24.4255 27.5918 25.5184C28.0137 26.0927 29.643 26.4009 30.3839 26.7201C30.9028 26.9434 31.7534 27.1768 32.2453 27.4785C33.1843 28.0561 34.0943 28.7435 34.9754 29.3761C35.4152 29.6921 36.7688 30.386 36.8362 30.9574ZM9.10299 6.86372C8.64797 6.85497 8.32618 6.91428 7.98595 6.98979V7.05299H8.04796C8.26513 7.50737 8.64829 7.80036 8.91634 8.19154C9.12302 8.63458 9.33002 9.07697 9.53702 9.51937L9.59871 9.45681C9.98314 9.18036 10.159 8.73927 10.1567 8.06514C10.0028 7.90018 9.98027 7.69341 9.84673 7.49635C9.66993 7.23351 9.32684 7.0841 9.10299 6.86372Z" fill="#585C64"/>
</svg>
