<svg width="40" height="40" viewBox="0 0 40 40" fill="none" xmlns="http://www.w3.org/2000/svg">
<g clip-path="url(#clip0_1728_90)">
<path d="M23.75 0.3L25.25 0.633333L26.4667 1.06667L27.45 1.56667L28.2 2.1L28.7667 2.66667L29.1834 3.23333L29.45 3.78333L29.6167 4.28333L29.6834 4.71667L29.7167 5.05L29.7 5.26667V14.1667L29.6167 15.2167L29.4 16.1333L29.05 16.9L28.6167 17.5333L28.1167 18.05L27.5667 18.4667L26.9834 18.7833L26.4 19.0167L25.85 19.1833L25.35 19.3L24.9167 19.3667L24.5667 19.4H14.6167L13.4667 19.4833L12.4834 19.7167L11.65 20.0833L10.9667 20.5333L10.4167 21.0667L9.96669 21.65L9.63336 22.25L9.38336 22.8667L9.21669 23.45L9.10002 23.9833L9.03336 24.4333L9.00002 24.7833V29.8833H5.28336L4.93336 29.8333L4.46669 29.7167L3.93336 29.5167L3.35002 29.2167L2.75002 28.7833L2.15002 28.1833L1.56669 27.4167L1.03336 26.4333L0.566691 25.2167L0.216691 23.75L-0.0166423 22L-0.0999756 19.95L2.44094e-05 17.9167L0.266691 16.1833L0.666691 14.7333L1.20002 13.55L1.80002 12.6L2.46669 11.8667L3.16669 11.3167L3.86669 10.9167L4.53336 10.65L5.13336 10.4833L5.66669 10.4L6.06669 10.3833H6.33336L6.43336 10.4H20.0334V9.01667H10.3L10.2834 4.43333L10.25 3.81667L10.3334 3.25L10.5167 2.73333L10.8 2.26667L11.2167 1.83333L11.7334 1.45L12.3667 1.11667L13.1 0.816667L13.95 0.566667L14.9167 0.366667L15.9834 0.2L17.1667 0.1L18.45 0.0333333L19.85 0L21.9667 0.0833333L23.75 0.3ZM13.25 3.6L12.8667 4.15L12.7334 4.83333L12.8667 5.51667L13.25 6.08333L13.8 6.45L14.4834 6.6L15.1667 6.45L15.7167 6.08333L16.1 5.51667L16.2334 4.83333L16.1 4.15L15.7167 3.6L15.1667 3.23333L14.4834 3.08333L13.8 3.23333L13.25 3.6ZM35.0667 10.1833L35.5334 10.2833L36.0667 10.4833L36.65 10.7833L37.25 11.2333L37.85 11.8167L38.4334 12.6L38.9667 13.5833L39.4334 14.8L39.7834 16.2667L40.0167 18L40.1 20.05L40 22.1L39.7334 23.8333L39.3334 25.2667L38.8 26.45L38.2 27.4L37.5334 28.15L36.8334 28.7L36.1334 29.1L35.4667 29.3667L34.8667 29.5167L34.3334 29.6L33.9334 29.6333L33.6667 29.6167H19.9667V30.9833H29.7L29.7167 35.5833L29.75 36.1833L29.6667 36.75L29.4834 37.2667L29.2 37.75L28.7834 38.1667L28.2667 38.5667L27.6334 38.9L26.9 39.1833L26.05 39.4333L25.0834 39.65L24.0167 39.8L22.8334 39.9167L21.55 39.9833L20.15 40L18.0334 39.9333L16.25 39.7L14.75 39.3667L13.5334 38.95L12.55 38.45L11.8 37.9L11.2334 37.3333L10.8167 36.7667L10.55 36.2167L10.3834 35.7167L10.3167 35.3L10.2834 34.9667L10.3 34.75V25.85L10.3834 24.7833L10.6 23.8833L10.95 23.1167L11.3834 22.4833L11.8834 21.95L12.4334 21.55L13.0167 21.2167L13.6 20.9833L14.15 20.8167L14.65 20.7167L15.0834 20.65L15.4334 20.6167L15.65 20.6H25.3834L26.5334 20.5167L27.5167 20.2833L28.35 19.9333L29.0334 19.4667L29.5834 18.9333L30.0334 18.35L30.3667 17.75L30.6167 17.15L30.7834 16.5667L30.9 16.0333L30.9667 15.5667L31 15.2167V10.1167H34.4834L34.7167 10.1333L35.0667 10.1833ZM24.2834 33.9333L23.9 34.4833L23.7667 35.1667L23.9 35.85L24.2834 36.4L24.8334 36.7833L25.5167 36.9167L26.2 36.7833L26.75 36.4L27.1334 35.85L27.2667 35.1667L27.1334 34.4833L26.75 33.9333L26.2 33.55L25.5167 33.4167L24.8334 33.55L24.2834 33.9333Z" fill="#585C64"/>
</g>
<defs>
<clipPath id="clip0_1728_90">
<rect width="40" height="40" fill="white"/>
</clipPath>
</defs>
</svg>
