<svg width="40" height="40" viewBox="0 0 40 40" fill="none" xmlns="http://www.w3.org/2000/svg">
<g clip-path="url(#clip0_1726_20)">
<path d="M39.4884 17.843L31.6051 4.20229C30.9228 3.01795 29.2441 2.04529 27.8714 2.04529H12.1209C10.7559 2.04529 9.06959 3.01795 8.38725 4.20229L0.511753 17.843C-0.170747 19.0273 -0.170747 20.9646 0.511753 22.1491L8.38709 35.7975C9.06942 36.982 10.7481 37.9546 12.1208 37.9546H27.8791C29.2441 37.9546 30.9224 36.982 31.6128 35.7976L39.4881 22.1493C40.1706 20.9648 40.1709 19.0273 39.4884 17.843ZM18.2939 9.59112C18.2939 8.69696 19.0234 7.96745 19.9176 7.96745C20.8118 7.96745 21.5413 8.69696 21.5413 9.59112V19.294C21.5413 20.1883 20.8118 20.9176 19.9176 20.9176C19.0234 20.9176 18.2939 20.1883 18.2939 19.294V9.59112ZM19.9176 30.3068C13.8464 30.3068 8.90475 25.3651 8.90475 19.294C8.91259 15.8113 10.5598 12.5405 13.3523 10.454C13.5045 10.3402 13.6778 10.2576 13.862 10.211C14.0463 10.1644 14.238 10.1547 14.426 10.1824C14.6141 10.2101 14.7948 10.2746 14.9578 10.3724C15.1208 10.4701 15.2629 10.5991 15.3759 10.752C15.4897 10.9042 15.5723 11.0775 15.6189 11.2618C15.6655 11.4461 15.6753 11.6377 15.6476 11.8258C15.6199 12.0139 15.5553 12.1946 15.4575 12.3576C15.3598 12.5207 15.2308 12.6628 15.0779 12.7758C11.4776 15.4505 10.7246 20.5411 13.3993 24.1415C16.0741 27.742 21.1648 28.4948 24.7651 25.8201C26.8281 24.2906 28.0439 21.8668 28.0439 19.294C28.0405 18.021 27.7394 16.7664 27.1647 15.6305C26.5899 14.4947 25.7574 13.509 24.7338 12.7523C24.0904 12.2816 23.9571 11.3716 24.4278 10.7285C24.8984 10.0851 25.8083 9.95179 26.4516 10.4226C29.2674 12.5011 30.9226 15.7956 30.9304 19.294C30.9304 25.373 25.9888 30.3068 19.9176 30.3068Z" fill="#585C64"/>
</g>
<defs>
<clipPath id="clip0_1726_20">
<rect width="40" height="40" fill="white"/>
</clipPath>
</defs>
</svg>
